<svg version="1.1" xmlns="http://www.w3.org/2000/svg" xmlns:xlink="http://www.w3.org/1999/xlink" width="512" height="512" viewBox="0,0,256,256"><g fill="#39563f" fill-rule="nonzero" stroke="none" stroke-width="1" stroke-linecap="butt" stroke-linejoin="miter" stroke-miterlimit="10" stroke-dasharray="" stroke-dashoffset="0" font-family="none" font-weight="none" font-size="none" text-anchor="none" style="mix-blend-mode: normal"><g transform="translate(-0.00011,0) scale(0.5,0.5)"><path d="M261.56,101.28c-3.09302,-2.95877 -7.96698,-2.95877 -11.06,0l-184.1,175.87c-1.57996,1.51138 -2.47248,3.60356 -2.47,5.79l-0.03,165.06c0,17.67311 14.32689,32 32,32h96.1c8.83656,0 16,-7.16344 16,-16v-136c0,-4.41828 3.58172,-8 8,-8h80c4.41828,0 8,3.58172 8,8v136c0,8.83656 7.16344,16 16,16h96.06c17.67311,0 32,-14.32689 32,-32v-165.06c0.00248,-2.18644 -0.89004,-4.27862 -2.47,-5.79z"></path><path d="M490.91,244.15l-74.8,-71.56v-108.59c0,-8.83656 -7.16344,-16 -16,-16h-48c-8.83656,0 -16,7.16344 -16,16v32l-57.92,-55.38c-5.42,-5.48 -13.48,-8.62 -22.19,-8.62c-8.68,0 -16.72,3.14 -22.14,8.63l-212.7,203.5c-6.22,6 -7,15.87 -1.34,22.37c2.87236,3.31572 6.98014,5.30664 11.3624,5.50704c4.38227,0.2004 8.65461,-1.40731 11.8176,-4.44704l207.5,-198.28c3.09302,-2.95877 7.96698,-2.95877 11.06,0l207.52,198.28c6.36465,6.10355 16.46786,5.90676 22.59,-0.44c6.14,-6.36 5.63,-16.86 -0.76,-22.97z"></path></g></g></svg>