<svg version="1.1" xmlns="http://www.w3.org/2000/svg" xmlns:xlink="http://www.w3.org/1999/xlink" width="120" height="120" viewBox="0,0,256,256"><g fill="#39563f" fill-rule="nonzero" stroke="none" stroke-width="1" stroke-linecap="butt" stroke-linejoin="miter" stroke-miterlimit="10" stroke-dasharray="" stroke-dashoffset="0" font-family="none" font-weight="none" font-size="none" text-anchor="none" style="mix-blend-mode: normal"><g transform="translate(0.39681,0.16262) scale(2.13333,2.13333)"><path d="M118.27,98.503v-0.026c0,0 -22.666,-22.64 -22.68,-22.651c-1.797,-1.798 -4.671,-1.759 -6.439,0.012l-10.433,10.476c-4.056,4.057 -9.286,0.457 -19.325,-7.729c-6.642,-5.416 -14.284,-12.699 -20.91,-20.91c-4.65,-5.761 -8.762,-11.811 -4.514,-16.058c0.011,-0.011 10.476,-10.449 10.474,-10.46l0.008,-0.022c1.878,-1.878 1.696,-4.755 -0.019,-6.472v-0.026c0,0 -23.321,-23.292 -23.334,-23.306c-1.797,-1.797 -4.67,-1.757 -6.439,0.012l-10.51,10.51c-4.33,5.419 -13.953,31.246 27.302,73.534c43.46,44.551 71.504,35.021 76.332,29.994c0,0 10.499,-10.375 10.499,-10.385l0.009,-0.021c1.878,-1.879 1.693,-4.754 -0.021,-6.472z"></path></g></g></svg>