<svg version="1.1" xmlns="http://www.w3.org/2000/svg" xmlns:xlink="http://www.w3.org/1999/xlink" width="24" height="24" viewBox="0,0,256,256"><g fill="none" fill-rule="nonzero" stroke="#39563f" stroke-width="1.5" stroke-linecap="round" stroke-linejoin="round" stroke-miterlimit="10" stroke-dasharray="" stroke-dashoffset="0" font-family="none" font-weight="none" font-size="none" text-anchor="none" style="mix-blend-mode: normal"><g transform="translate(-0.00004,-0.00004)"><g><g transform="scale(10.66667,10.66667)"><path d="M12,15c1.6569,0 3,-1.3431 3,-3c0,-1.6569 -1.3431,-3 -3,-3c-1.6569,0 -3,1.3431 -3,3c0,1.6569 1.3431,3 3,3z"></path><path d="M19.6224,10.3954l-1.0977,-2.6506l1.4753,-1.7448l-2,-2l-1.7353,1.48295l-2.7069,-1.11321l-0.6225,-2.36974h-1.9543l-0.6319,2.40113l-2.64469,1.11483l-1.70441,-1.51596l-2,2l1.45337,1.78885l-1.08087,2.65745l-2.3725,0.5537v2l2.40111,0.6555l1.11464,2.6442l-1.51575,1.7003l2,2l1.79116,-1.4597l2.60584,1.072l0.603,2.3877h2l0.6045,-2.3868l2.6506,-1.0977c0.4418,0.3158 1.7449,1.4845 1.7449,1.4845l2,-2l-1.4841,-1.7506l1.098,-2.6514l2.386,-0.6208l0.0001,-1.9772z"></path></g></g></g></g></svg>